PathFileType	4	(X/Y/Z)	C:/Users/opensim2020/Desktop/walking_exp_matlab/subject03_walking06_straight_04.trc																																																																																																																																		
DataRate	CameraRate	NumFrames	NumMarkers	Units	OrigDataRate	OrigDataStartFrame	OrigNumFrames																																																																																																																														
100	100	5	44	mm	100	2868	278																																																																																																																														
Frame#	Time	LFHD			RFHD			LBHD			RBHD			C7			T10			CLAV			STRN			RBAK			LSHO			LUPA			LELB			LFRM			LWRA			LWRB			LFIN			RSHO			RUPA			RELB			RFRM			RWRA			RWRB			RFIN			LASI			RASI			LPSI			RPSI			LTHI			LKNE			LTIB			LANK			LHEE			LTOE			RTHI			RKNE			RTIB			RANK			RHEE			RTOE			*39			*40			*41			*42			*43		
		X1	Y1	Z1	X2	Y2	Z2	X3	Y3	Z3	X4	Y4	Z4	X5	Y5	Z5	X6	Y6	Z6	X7	Y7	Z7	X8	Y8	Z8	X9	Y9	Z9	X10	Y10	Z10	X11	Y11	Z11	X12	Y12	Z12	X13	Y13	Z13	X14	Y14	Z14	X15	Y15	Z15	X16	Y16	Z16	X17	Y17	Z17	X18	Y18	Z18	X19	Y19	Z19	X20	Y20	Z20	X21	Y21	Z21	X22	Y22	Z22	X23	Y23	Z23	X24	Y24	Z24	X25	Y25	Z25	X26	Y26	Z26	X27	Y27	Z27	X28	Y28	Z28	X29	Y29	Z29	X30	Y30	Z30	X31	Y31	Z31	X32	Y32	Z32	X33	Y33	Z33	X34	Y34	Z34	X35	Y35	Z35	X36	Y36	Z36	X37	Y37	Z37	X38	Y38	Z38	X39	Y39	Z39	X40	Y40	Z40	X41	Y41	Z41	X42	Y42	Z42	X43	Y43	Z43	X44	Y44	Z44
																																																																																																																																					
140	1.39	6.06765	1608.02002	966.62518	-0.20293	1613.91687	1099.40588	-126.29765	1579.33984	965.02917	-127.68806	1584.47253	1096.23999	-176.6703	1418.25659	1026.01538	-210.4296	1101.54407	1024.67871	-57.55552	1338.97253	1026.68323	-12.25818	1176.29736	1018.22937	-233.12303	1237.88733	1119.19531	-103.06265	1377.12842	870.89972	-93.75524	1181.48938	800.75854	-66.86414	1060.32141	791.97113	-8.65646	944.92957	801.42712	42.84352	841.64557	841.974	20.70661	834.59113	790.65552	62.23407	763.09521	808.57318	-104.83555	1360.29272	1186.51428	-99.65358	1137.61987	1258.96265	-81.52021	1026.07227	1272.87537	-63.44368	890.3855	1276.87952	-34.99714	794.01617	1242.36304	-63.21138	790.58624	1288.52344	-42.66335	718.57086	1278.95508	-43.55851	935.55389	907.73242	-39.03309	945.47583	1146.07324	-204.75737	952.98383	960.16791	-201.02802	971.71863	1108.31458	-54.45261	633.13165	855.25946	-13.80116	458.19977	871.10596	-161.77338	328.9357	877.39124	-307.3121	183.64578	920.67957	-359.26474	182.93784	963.5235	-227.40758	60.32488	925.78925	-84.59003	649.78802	1183.60535	-62.85912	470.01004	1145.5343	-102.97679	282.75577	1143.13037	-118.24889	68.22186	1088.04651	-159.12045	36.3947	1035.08765	25.48428	31.48855	1076.0708	-71.10094	1677.25488	1017.315	NaN	NaN	NaN	NaN	NaN	NaN	NaN	NaN	NaN	NaN	NaN	NaN
141	1.4	14.82696	1608.02051	967.02429	8.94406	1613.87317	1099.86121	-117.55428	1579.52002	965.75641	-118.65424	1584.61121	1096.87793	-168.0533	1418.4303	1026.58984	-201.93768	1101.68542	1025.27747	-49.0997	1338.95276	1027.21484	-3.82338	1176.39819	1018.7688	-224.51015	1238.13428	1119.64697	-95.04693	1377.43896	871.41071	-86.69342	1181.3241	801.92719	-60.83608	1060.00769	793.58508	-4.51967	943.42004	802.36371	44.32759	838.82721	841.99603	22.5068	832.5174	790.74249	62.54645	760.04285	808.09601	-96.21274	1360.60999	1187.11694	-88.0143	1138.45325	1260.03101	-67.41947	1027.34265	1274.0249	-46.94072	892.03339	1278.67615	-17.16533	796.005	1244.35779	-44.89365	792.49481	1290.84229	-22.41605	721.08032	1282.01147	-34.58021	936.46185	908.80988	-30.67868	945.55035	1147.18945	-196.23232	953.38379	960.8161	-192.55917	971.76465	1109.04529	-40.2616	634.20392	856.74402	3.83142	460.0491	873.45044	-140.6922	326.62527	878.99811	-283.46652	178.15099	921.63684	-336.10657	175.50763	963.73999	-198.27846	58.751	928.77222	-77.09163	649.01642	1183.35266	-58.44239	469.64969	1145.7821	-100.38062	282.80258	1143.24146	-117.95698	68.41341	1087.92688	-159.05676	36.67755	1035.01672	25.61011	31.44798	1076.03528	-62.07744	1677.39221	1017.77765	NaN	NaN	NaN	NaN	NaN	NaN	NaN	NaN	NaN	NaN	NaN	NaN
142	1.41	23.60757	1607.92139	967.41913	17.91991	1613.80334	1100.28003	-108.85615	1579.71338	966.33594	-109.68851	1584.80847	1097.48157	-159.58333	1418.64233	1027.47913	-193.64819	1101.85474	1025.88135	-40.39742	1339.25366	1027.63	4.52696	1176.44519	1019.34381	-215.8456	1238.43555	1120.27478	-86.89119	1377.7511	871.9939	-79.76989	1181.22449	803.05157	-54.70262	1059.73938	794.89801	-0.63031	942.01343	803.11578	46.182	836.09735	841.9884	24.05846	830.62714	790.72406	62.53133	757.14783	807.46045	-87.52473	1361.03906	1187.67017	-76.56336	1139.30005	1261.13708	-53.55625	1028.73242	1275.28308	-30.61852	893.90631	1280.45056	0.72438	798.36383	1246.40417	-26.58965	794.57684	1293.07996	-2.23464	723.84204	1284.98486	-25.76255	937.17493	909.96521	-22.45666	945.51947	1147.9646	-187.53792	953.65332	961.34741	-184.20116	971.73053	1109.70959	-26.32749	635.4093	858.23523	20.83542	462.00748	876.08289	-119.73744	324.18341	880.59631	-258.8436	171.8382	922.66681	-312.10834	167.13268	964.22687	-168.46262	56.65162	931.76343	-71.17546	648.77667	1184.88464	-54.11496	469.27698	1145.91333	-97.84035	282.77124	1143.27087	-117.71687	68.64266	1087.78906	-159.08992	36.85852	1034.93774	25.70969	31.41997	1076.02612	-53.01817	1677.48792	1018.17328	NaN	NaN	NaN	NaN	NaN	NaN	NaN	NaN	NaN	NaN	NaN	NaN
143	1.42	32.37603	1607.88306	967.74567	26.95459	1613.72754	1100.57471	-100.11519	1579.91577	966.89294	-100.75829	1585.03247	1098.10596	-151.00079	1418.6803	1028.1969	-185.20235	1101.99158	1026.46301	-31.88137	1339.31067	1028.09668	12.87358	1176.46521	1019.89569	-207.15779	1238.7533	1121.01807	-78.64396	1378.04785	872.53351	-72.81809	1181.16089	804.02417	-48.9608	1059.47974	796.12286	3.04732	940.69067	803.70807	47.84055	833.44659	841.87067	25.46004	828.92395	790.57935	62.30093	754.40491	806.55164	-78.80814	1361.40076	1188.12451	-65.36553	1140.20654	1262.24182	-39.95102	1030.16418	1276.63538	-14.43968	895.8476	1282.20959	18.66157	800.80457	1248.47693	-8.42795	796.76086	1295.18225	17.86275	726.85028	1287.75891	-17.00378	937.69733	910.99646	-14.69132	945.61438	1148.4563	-178.98889	953.89709	961.74371	-175.87439	971.63977	1110.328	-12.65876	636.6806	859.74982	37.5257	464.14316	878.60724	-98.86907	321.53534	882.43365	-233.58026	164.79755	923.97937	-287.15674	157.93767	964.9707	-137.99133	54.74297	934.28864	-64.77685	648.50909	1185.21216	-49.94378	468.91653	1146.04346	-95.51974	282.8472	1143.26453	-117.50122	68.89641	1087.62878	-158.98993	37.41151	1034.64258	25.80304	31.35613	1076.0415	-43.95337	1677.57068	1018.4762	NaN	NaN	NaN	NaN	NaN	NaN	NaN	NaN	NaN	NaN	NaN	NaN
144	1.43	41.16362	1607.76196	968.09613	35.89136	1613.63403	1100.90002	-91.45139	1580.10254	967.43756	-91.88145	1585.2345	1098.63757	-142.43462	1418.80554	1028.76318	-176.89349	1102.14478	1027.0874	-23.32488	1339.39185	1028.48022	21.31283	1176.5188	1020.49707	-198.46321	1239.09534	1121.91504	-70.1931	1378.26953	873.09247	-65.81593	1181.07788	804.83551	-43.44804	1059.12305	797.13531	6.61961	939.35223	804.05548	49.35004	830.90527	841.61938	26.76423	827.30292	790.3692	61.82395	751.79974	805.51532	-70.04092	1361.73877	1188.50012	-54.31254	1141.09033	1263.35046	-26.65733	1031.61951	1278.11035	1.61848	897.8703	1283.97046	36.65899	803.40125	1250.54944	9.61262	799.02393	1297.17761	37.74061	730.05188	1290.42993	-8.50469	938.06708	912.08099	-7.39094	944.85645	1149.23743	-170.39514	954.13153	962.21094	-167.6254	971.59406	1110.83276	0.52003	637.922	861.14001	53.40203	466.29865	881.30945	-77.99127	318.79208	884.66602	-207.29439	157.3837	925.21619	-261.32053	147.89755	966.02301	-106.75716	52.45364	937.11371	-58.26408	648.07452	1185.08447	-45.85554	468.57159	1146.17126	-93.37505	282.90826	1143.22168	-117.29272	69.13164	1087.46387	-159.07687	37.97742	1034.40881	25.91943	31.30167	1076.04138	-34.96931	1677.62842	1018.77246	NaN	NaN	NaN	NaN	NaN	NaN	NaN	NaN	NaN	NaN	NaN	NaN
